# xmcd
#
# Track frame offsets: 
#        150
#        19100
#        39856
#        62861
#        86197
#        101756
#        119892
#        134757
#        154797
#        167545
#        185996
#        203173
#        217797
#        240839
#        255383
#        272606
#        286019
#
# Disc length: 4050 seconds
#
# Revision: 0
# Processed by: cddbd v1.5.1PL2 Copyright (c) Steve Scherf et al.
# Submitted via: ExactAudioCopy v0.95b3
#
DISCID=f10fd011
DTITLE=Skunkweed - Chunky Butt Funky
DYEAR=2002
DGENRE=Rockabilly
TTITLE0=Wham Bam It's a Booty Jam
TTITLE1=Open Minded Redneck
TTITLE2=Aqua Velva Man
TTITLE3=Titty Bar
TTITLE4=Wasted
TTITLE5=Lickety Tits
TTITLE6=Soccor Riot
TTITLE7=Directions
TTITLE8=Makin' Magic
TTITLE9=Long Time Ago
TTITLE10=Masterbate
TTITLE11=Fuck 'Em
TTITLE12=El Camino
TTITLE13=Drunk Again
TTITLE14=Rasta Man
TTITLE15=Linin' It Up
TTITLE16=Mexican Wrestker
EXTD=
EXTT0=
EXTT1=
EXTT2=
EXTT3=
EXTT4=
EXTT5=
EXTT6=
EXTT7=
EXTT8=
EXTT9=
EXTT10=
EXTT11=
EXTT12=
EXTT13=
EXTT14=
EXTT15=
EXTT16=
PLAYORDER=
